<?xml version="1.0" encoding="UTF-8" standalone="no"?>
<!-- Created with Inkscape (http://www.inkscape.org/) -->

<svg
   width="177.90382mm"
   height="122.02121mm"
   viewBox="0 0 177.90382 122.02121"
   version="1.1"
   id="svg3152"
   xmlns:inkscape="http://www.inkscape.org/namespaces/inkscape"
   xmlns:sodipodi="http://sodipodi.sourceforge.net/DTD/sodipodi-0.dtd"
   xmlns="http://www.w3.org/2000/svg"
   xmlns:svg="http://www.w3.org/2000/svg">
  <sodipodi:namedview
     id="namedview3154"
     pagecolor="#ffffff"
     bordercolor="#000000"
     borderopacity="0.25"
     inkscape:showpageshadow="2"
     inkscape:pageopacity="0.0"
     inkscape:pagecheckerboard="0"
     inkscape:deskcolor="#d1d1d1"
     inkscape:document-units="mm"
     showgrid="false" />
  <defs
     id="defs3149" />
  <g
     inkscape:label="Layer 1"
     inkscape:groupmode="layer"
     id="layer1"
     transform="translate(-16.780003,-67.706511)">
    <g
       id="Layer_1"
       transform="matrix(0.0994699,0,0,0.09637209,-1.9816526,26.734859)"
       inkscape:export-filename="Layer_1.svg"
       inkscape:export-xdpi="96"
       inkscape:export-ydpi="96">
	<g
   id="g1103">
		<path
   style="fill:#0b0754"
   d="m 1370.047,1095.715 v 566.678 c 0,15.958 -12.936,28.894 -28.893,28.894 H 588.656 c -15.958,0 -28.894,-12.936 -28.894,-28.894 v -566.679 c 0,-15.957 12.936,-28.893 28.893,-28.893 h 752.499 c 15.957,0 28.893,12.936 28.893,28.894 z"
   id="path633" />

		<path
   style="fill:#7c9af2"
   d="M 1311.852,1644.23 H 639.563 c -16.208,0 -29.346,-13.139 -29.346,-29.346 v -479.349 c 0,-16.208 13.139,-29.347 29.347,-29.347 h 672.289 c 16.207,0 29.346,13.139 29.346,29.346 v 479.35 c 0,16.208 -13.14,29.346 -29.347,29.346 z"
   id="path635" />

		<g
   id="g641">
			<rect
   x="651.40601"
   y="1155.618"
   style="fill:#92b5f9"
   width="72.835999"
   height="83.458"
   id="rect637" />

			
				<rect
   x="653.68201"
   y="1168.516"
   transform="rotate(90,687.8245,1197.3476)"
   style="fill:#ffffff"
   width="68.285004"
   height="57.664001"
   id="rect639" />

		</g>

		<g
   id="g647">
			<rect
   x="651.40601"
   y="1280.3719"
   style="fill:#92b5f9"
   width="72.835999"
   height="83.458"
   id="rect643" />

			
				<rect
   x="653.68201"
   y="1293.27"
   transform="rotate(90,687.82445,1322.1015)"
   style="fill:#ffffff"
   width="68.285004"
   height="57.664001"
   id="rect645" />

		</g>

		<g
   id="g653">
			<rect
   x="651.40601"
   y="1407.822"
   style="fill:#92b5f9"
   width="72.835999"
   height="83.459"
   id="rect649" />

			
				<rect
   x="653.68201"
   y="1420.72"
   transform="rotate(90,687.8245,1449.5517)"
   style="fill:#ffffff"
   width="68.285004"
   height="57.664001"
   id="rect651" />

		</g>

		<path
   style="fill:#fa7167"
   d="m 746.436,1123.696 c -2.317,-1.296 -5.244,-0.467 -6.538,1.851 l -52.765,94.423 -15.461,-38.246 c -0.995,-2.46 -3.794,-3.649 -6.255,-2.654 -2.461,0.995 -3.648,3.796 -2.654,6.256 l 22.977,56.836 62.547,-111.927 c 1.294,-2.317 0.466,-5.244 -1.851,-6.539 z"
   id="path655" />

		<path
   style="fill:#fa7167"
   d="m 746.436,1240.538 c -2.317,-1.295 -5.244,-0.466 -6.538,1.85 l -52.765,94.422 -15.461,-38.246 c -0.995,-2.459 -3.794,-3.649 -6.255,-2.653 -2.461,0.995 -3.648,3.795 -2.654,6.255 l 22.977,56.837 62.547,-111.926 c 1.294,-2.317 0.466,-5.245 -1.851,-6.539 z"
   id="path657" />

		<rect
   x="760.66101"
   y="1170.792"
   style="fill:#0b0754"
   width="491.64401"
   height="21.243999"
   id="rect659" />

		<rect
   x="760.66101"
   y="1210.245"
   style="fill:#0b0754"
   width="491.64401"
   height="21.243999"
   id="rect661" />

		<rect
   x="765.21301"
   y="1296.738"
   style="fill:#0b0754"
   width="491.64401"
   height="21.243999"
   id="rect663" />

		<rect
   x="765.21301"
   y="1336.191"
   style="fill:#0b0754"
   width="491.64401"
   height="21.243999"
   id="rect665" />

		<path
   style="fill:#4951ec"
   d="m 1280.126,563.059 0.89,-24.76 -19.893,-14.769 c -2.267,-1.682 -1.62,-5.232 1.094,-6.007 l 23.824,-6.805 7.899,-23.483 c 0.9,-2.674 4.477,-3.156 6.052,-0.815 l 13.834,20.554 24.774,0.256 c 2.822,0.029 4.386,3.282 2.646,5.504 l -15.273,19.508 7.411,23.641 c 0.844,2.693 -1.766,5.185 -4.417,4.217 l -23.273,-8.497 -20.195,14.355 c -2.298,1.634 -5.474,-0.079 -5.373,-2.899 z"
   id="path667" />

		<polygon
   style="fill:#4951ec"
   points="862.814,806.259 854.28,821.628 837.221,813.577 826.291,824.065 813.148,818.963 807.41,827.353 801.516,823.322 810.451,810.258 824.631,815.762 835.824,805.021 851.282,812.318 859.676,797.202 877.523,804.681 886.968,791.715 905.315,796.104 903.654,803.048 889.936,799.767 879.969,813.449 "
   id="polygon669" />

		<polygon
   style="fill:#4951ec"
   points="667.404,519.364 650.014,516.786 651.544,497.985 637.879,491.447 638.028,477.349 628.156,474.933 629.854,467.997 645.227,471.76 645.067,486.971 659.061,493.665 657.673,510.704 674.777,513.238 674.059,532.575 689.52,536.852 691.871,555.569 684.787,556.458 683.029,542.464 666.714,537.951 "
   id="polygon671" />

		<g
   id="g707">
			<path
   style="fill:#92b5f9"
   d="m 1589.191,622.068 c -0.871,-12.546 8.594,-23.423 21.14,-24.294 12.546,-0.871 23.422,8.594 24.294,21.14 0.871,12.546 -8.593,23.423 -21.14,24.293 -12.547,0.872 -23.424,-8.593 -24.294,-21.139 z"
   id="path673" />

			<g
   id="g677">
				<path
   style="fill:#92b5f9"
   d="m 1627.807,686.371 c -1.36,-6.606 -2.182,-13.678 -4.436,-20.044 -1.938,-5.475 -10.482,-3.803 -10.049,2.077 0.53,7.201 2.779,14.501 4.289,21.555 0.61,2.856 4.39,4.183 6.891,3.304 3.058,-1.073 3.895,-4.021 3.305,-6.892 z"
   id="path675" />

			</g>

			<g
   id="g681">
				<path
   style="fill:#92b5f9"
   d="m 1666.832,658.16 c -7.548,-4.45 -14.125,-9.964 -21.09,-15.226 -5.441,-4.11 -11.306,2.965 -6.831,7.851 6.426,7.017 14.863,12.5 23.008,17.301 2.578,1.519 6.161,0.034 7.419,-2.506 1.411,-2.849 0.077,-5.897 -2.506,-7.42 z"
   id="path679" />

			</g>

			<g
   id="g685">
				<path
   style="fill:#92b5f9"
   d="m 1652.538,617.396 c -1.707,1.371 -2.048,3.34 -0.994,5.253 2.553,4.63 9.032,4.4 13.632,4.244 4.801,-0.164 9.604,-1.139 14.143,-2.689 6.711,-2.291 3.074,-12.706 -3.661,-10.407 -13.173,4.497 -18.16,-0.382 -23.12,3.599 z"
   id="path683" />

			</g>

			<g
   id="g689">
				<path
   style="fill:#92b5f9"
   d="m 1645.287,573.118 c -6.628,9.697 -12.044,12.971 -11.201,18.308 0.494,3.12 2.961,4.61 5.973,3.927 3.56,-0.807 5.499,-4.582 7.633,-7.232 2.046,-2.541 4.054,-5.086 5.88,-7.792 1.659,-2.456 1.893,-5.634 -0.538,-7.749 -2.035,-1.771 -6.064,-1.924 -7.747,0.538 z"
   id="path687" />

			</g>

			<g
   id="g693">
				<path
   style="fill:#92b5f9"
   d="m 1619.465,571.438 c -2.119,-5.878 -2.584,-8.016 -5.332,-10.746 -2.389,-2.374 -7.433,-0.86 -7.767,2.637 -0.389,4.079 0.466,5.594 2.693,11.77 1.01,2.802 4.208,4.364 7.034,3.373 2.802,-0.983 4.387,-4.222 3.372,-7.034 z"
   id="path691" />

			</g>

			<g
   id="g697">
				<path
   style="fill:#92b5f9"
   d="m 1591.576,585.659 c -9.554,-7.258 -11.497,-9.304 -15.251,-8.907 -2.201,0.232 -4.671,2.345 -4.19,4.815 0.892,4.59 3.562,5.836 12.346,12.245 2.356,1.719 5.593,1.805 7.624,-0.529 1.82,-2.092 1.805,-5.85 -0.529,-7.624 z"
   id="path695" />

			</g>

			<g
   id="g701">
				<path
   style="fill:#92b5f9"
   d="m 1553.198,618.931 c -3.765,1.997 -2.252,8.507 1.825,9.04 3.909,0.51 5.418,-0.117 24.386,-3.58 2.929,-0.535 5.342,-2.674 5.12,-5.883 -0.19,-2.723 -2.934,-5.652 -5.883,-5.12 -19.699,3.555 -21.67,3.539 -25.448,5.543 z"
   id="path699" />

			</g>

			<g
   id="g705">
				<path
   style="fill:#92b5f9"
   d="m 1582.915,649.959 c -10.396,10.062 -11.918,8.285 -16.022,14.437 -1.878,2.813 1.218,7.297 4.486,6.698 4.195,-0.769 5.322,-1.477 10.79,-5.809 3.177,-2.518 6.215,-5.216 9.134,-8.027 2.163,-2.084 1.58,-5.995 -0.544,-7.843 -2.429,-2.113 -5.681,-1.55 -7.844,0.544 z"
   id="path703" />

			</g>

		</g>

		<g
   id="g711">
			<path
   style="fill:#4951ec"
   d="m 256.575,1680.65 c -3.345,0 -6.055,2.366 -6.055,5.285 0,2.918 2.71,5.283 6.055,5.283 h 1666.203 c 3.469,0 6.285,-2.327 6.302,-5.207 0,-0.035 0,-0.07 0,-0.105 0.016,-2.898 -2.809,-5.256 -6.301,-5.256 z"
   id="path709" />

		</g>

		<polygon
   style="fill:#fa7167"
   points="1165.205,479.78 1159.509,473.244 1140.769,475.387 1141.611,492.947 1123.243,495.873 1121.978,512.753 1108.59,517.19 1110.837,523.968 1128.742,518.034 1129.941,502.037 1149.05,498.993 1148.221,481.722 "
   id="polygon713" />

		<polygon
   style="fill:#dde8fe"
   points="1460.602,803.66 1455.814,798.149 1436.989,798.617 1435.546,812.483 1416.987,813.59 1413.548,826.785 1399.723,829.405 1401.067,834.881 1419.558,831.377 1422.818,818.873 1442.124,817.721 1443.542,804.083 "
   id="polygon715" />

		<polygon
   style="fill:#dde8fe"
   points="1834.897,869.135 1830.109,863.624 1811.283,864.092 1809.842,877.958 1791.283,879.065 1787.843,892.259 1774.019,894.88 1775.363,900.356 1793.854,896.853 1797.113,884.348 1816.419,883.196 1817.838,869.559 "
   id="polygon717" />

		<g
   id="g753">
			<path
   style="fill:#dde8fe"
   d="m 755.306,651.693 c 0,0 5.375,-7.874 16.509,-8.249 9.926,-0.334 17.033,7.325 17.342,16.514 0.358,10.635 -8.544,23.532 -32.385,35.284 -24.578,-10.122 -34.327,-22.392 -34.684,-33.027 -0.309,-9.188 6.267,-17.308 16.193,-17.642 11.133,-0.375 17.025,7.12 17.025,7.12 z"
   id="path719" />

			<g
   id="g723">
				<path
   style="fill:#dde8fe"
   d="m 673.384,658.653 c 9.696,1.242 17.552,1.748 25.297,1.879 2.553,0.043 6.97,0.873 8.775,-1.288 0.939,-1.123 1.107,-2.505 0.099,-3.681 -1.845,-2.154 -5.706,-1.385 -8.279,-1.43 -7.844,-0.139 -16.714,-0.666 -25.646,-1.719 -1.675,-0.198 -3.179,1.404 -3.243,2.996 -0.07,1.811 1.321,3.028 2.997,3.243 z"
   id="path721" />

			</g>

			<g
   id="g727">
				<path
   style="fill:#dde8fe"
   d="m 803.97,681.128 c 3.751,0.129 7.503,0.188 11.256,0.258 3.591,0.068 7.822,0.777 11.245,-0.385 2.525,-0.857 2.82,-4.185 0.195,-5.182 -3.393,-1.288 -7.588,-0.744 -11.188,-0.801 -3.754,-0.059 -7.507,-0.129 -11.262,-0.129 -4.009,-0.002 -4.278,6.1 -0.246,6.239 z"
   id="path725" />

			</g>

			<g
   id="g731">
				<path
   style="fill:#dde8fe"
   d="m 707.044,708.458 c 4.866,-7.809 10.651,-10.129 15.093,-13.071 2.376,-1.573 1.148,-5.064 -1.731,-4.67 -7.889,1.08 -14.706,7.99 -18.655,14.479 -2.08,3.416 3.169,6.668 5.293,3.262 z"
   id="path729" />

			</g>

			<g
   id="g735">
				<path
   style="fill:#dde8fe"
   d="m 749.898,729.151 c -0.068,-3.879 0.598,-7.655 2.101,-11.242 0.919,-2.195 5.518,-8.274 1.134,-9.523 -4.128,-1.176 -6.504,5.601 -7.555,8.462 -1.407,3.835 -2.056,7.976 -1.945,12.055 0.109,4.015 6.336,4.296 6.265,0.248 z"
   id="path733" />

			</g>

			<g
   id="g739">
				<path
   style="fill:#dde8fe"
   d="m 782.211,706.196 c 2.054,1.558 4.108,3.116 6.162,4.675 2.049,1.555 3.998,3.796 6.757,3.293 1.551,-0.283 2.188,-1.819 2.041,-3.218 -0.267,-2.541 -3.563,-4.11 -5.442,-5.518 -2.062,-1.545 -4.125,-3.09 -6.187,-4.635 -1.372,-1.028 -3.526,-0.329 -4.367,1.036 -0.971,1.575 -0.335,3.328 1.036,4.367 z"
   id="path737" />

			</g>

			<g
   id="g743">
				<path
   style="fill:#dde8fe"
   d="m 729.986,628.147 c -7.562,-19.339 -7.404,-19.434 -8.979,-21.045 -1.614,-1.651 -4.656,-0.617 -4.715,1.772 -0.059,2.362 -0.008,1.974 8.024,22.293 0.639,1.616 2.938,2.075 4.345,1.325 1.681,-0.895 1.959,-2.722 1.325,-4.345 z"
   id="path741" />

			</g>

			<g
   id="g747">
				<path
   style="fill:#dde8fe"
   d="m 764.221,628.664 c 1.316,-3.158 2.28,-6.421 2.896,-9.788 0.572,-3.128 1.871,-7.847 -1,-10.094 -0.616,-0.483 -1.789,-0.495 -2.435,-0.076 -2.704,1.752 -2.24,6.036 -2.78,8.919 -0.588,3.145 -1.515,6.228 -2.628,9.226 -0.585,1.574 0.528,3.411 2.066,3.88 1.74,0.529 3.233,-0.513 3.881,-2.067 z"
   id="path745" />

			</g>

			<g
   id="g751">
				<path
   style="fill:#dde8fe"
   d="m 812.472,632.833 c 0.59,-1.449 -0.555,-2.854 -1.8,-3.379 -2.563,-1.079 -6.011,1.357 -8.21,2.592 -2.562,1.439 -4.959,3.122 -7.256,4.952 -1.324,1.056 -1.211,3.278 -0.119,4.432 1.279,1.352 3.066,1.131 4.432,0.12 8.918,-6.604 11.495,-5.139 12.953,-8.717 z"
   id="path749" />

			</g>

		</g>

		<g
   id="g763">
			<g
   id="g757">
				<path
   style="fill:#dde8fe"
   d="m 751.095,1658.172 c 9.498,-2.982 19.417,-5.751 29.455,-8.542 62.275,-17.389 132.863,-37.084 138.779,-117.331 1.266,-17.321 -2.345,-31.31 -10.747,-41.614 -22.607,-27.751 -71.022,-26.191 -98.167,-16.248 l 8.536,21.626 c 19.963,-7.321 56.671,-8.361 70.747,8.915 4.602,5.649 6.514,14.283 5.675,25.684 -4.726,64.146 -61.455,79.976 -121.507,96.731 -10.301,2.882 -20.473,5.719 -30.217,8.791 z"
   id="path755" />

			</g>

			<path
   style="fill:#bed1f9"
   d="m 502.998,1447.195 h 326.934 c 1.081,4.75 2.003,9.589 2.863,14.463 h -332.66 c 0.859,-4.874 1.783,-9.713 2.863,-14.463 z"
   id="path759" />

			<path
   style="fill:#dde8fe"
   d="m 832.795,1461.658 c 3.084,17.479 4.77,35.697 4.77,54.462 0,64.243 -19.124,122.407 -50.044,164.53 H 545.408 c -30.92,-42.123 -50.044,-100.287 -50.044,-164.53 0,-18.765 1.687,-36.982 4.771,-54.462 z"
   id="path761" />

		</g>

		<polygon
   style="fill:#4951ec"
   points="1601.468,734.975 1574.776,703.871 1562.5,749.732 "
   id="polygon765" />

		<g
   id="g811">
			<path
   style="fill:#92b5f9"
   d="m 963.176,619.422 c -39.664,12.275 -81.918,-10.007 -94.194,-49.67 -12.275,-39.664 10.007,-81.918 49.67,-94.193 39.664,-12.276 81.918,10.006 94.194,49.67 12.275,39.663 -10.007,81.918 -49.67,94.193 z"
   id="path767" />

			<path
   style="fill:#92b5f9"
   d="m 962.597,617.55 c -38.631,11.956 -79.786,-9.746 -91.741,-48.376 -11.956,-38.631 9.746,-79.786 48.377,-91.742 38.631,-11.956 79.786,9.746 91.741,48.377 11.955,38.631 -9.746,79.785 -48.377,91.741 z"
   id="path769" />

			<path
   style="fill:#ffffff"
   d="m 998.227,530.115 c 9.779,31.596 -7.908,65.137 -39.504,74.916 -31.597,9.778 -65.137,-7.908 -74.916,-39.504 -9.778,-31.596 7.908,-65.137 39.504,-74.916 31.596,-9.779 65.137,7.908 74.916,39.504 z"
   id="path771" />

			<path
   style="fill:#ffffff"
   d="m 957.708,601.753 c -29.903,9.255 -61.759,-7.544 -71.014,-37.447 -9.254,-29.902 7.544,-61.759 37.446,-71.013 29.903,-9.254 61.76,7.544 71.014,37.447 9.256,29.903 -7.543,61.759 -37.446,71.013 z"
   id="path773" />

			<g
   id="g783">
				<path
   style="fill:#92b5f9"
   d="m 893.098,559.154 -9.71,3.005 c -1.595,0.494 -2.492,2.193 -1.998,3.789 0.494,1.595 2.193,2.491 3.789,1.997 l 9.71,-3.005 c 1.595,-0.494 2.492,-2.193 1.998,-3.788 -0.494,-1.595 -2.194,-2.491 -3.789,-1.998 z"
   id="path775" />

				<path
   style="fill:#92b5f9"
   d="m 954.554,591.562 c -1.596,0.494 -2.492,2.192 -1.998,3.788 l 3.005,9.71 c 0.494,1.596 2.193,2.491 3.789,1.997 1.595,-0.494 2.492,-2.193 1.998,-3.788 l -3.004,-9.71 c -0.495,-1.595 -2.195,-2.491 -3.79,-1.997 z"
   id="path777" />

				<path
   style="fill:#92b5f9"
   d="m 996.671,527.101 -9.71,3.005 c -1.596,0.494 -2.492,2.193 -1.998,3.788 0.494,1.596 2.193,2.491 3.789,1.997 l 9.709,-3.005 c 1.596,-0.494 2.492,-2.193 1.998,-3.788 -0.494,-1.595 -2.193,-2.491 -3.788,-1.997 z"
   id="path779" />

				<path
   style="fill:#92b5f9"
   d="m 922.5,487.989 c -1.596,0.494 -2.492,2.193 -1.998,3.789 l 3.005,9.71 c 0.494,1.596 2.193,2.491 3.789,1.998 1.595,-0.494 2.492,-2.193 1.998,-3.789 l -3.005,-9.71 c -0.495,-1.596 -2.194,-2.492 -3.789,-1.998 z"
   id="path781" />

			</g>

			<g
   id="g787">
				<path
   style="fill:#92b5f9"
   d="m 945.927,464.646 1.979,-11.752 c 0.163,-0.964 1.077,-1.614 2.041,-1.452 l 13.481,2.271 c 0.964,0.162 1.615,1.076 1.452,2.04 l -1.98,11.752 c -0.163,0.965 -1.076,1.616 -2.042,1.453 l -13.478,-2.271 c -0.965,-0.162 -1.616,-1.076 -1.453,-2.041 z"
   id="path785" />

			</g>

			<g
   id="g791">
				<path
   style="fill:#92b5f9"
   d="m 890.792,482.02 -8.272,-8.579 c -0.679,-0.704 -1.799,-0.724 -2.504,-0.045 l -9.841,9.489 c -0.704,0.679 -0.725,1.8 -0.046,2.503 l 8.272,8.58 c 0.679,0.705 1.801,0.725 2.506,0.045 l 9.839,-9.487 c 0.705,-0.679 0.725,-1.801 0.046,-2.506 z"
   id="path789" />

			</g>

			<g
   id="g799">
				<path
   style="fill:#92b5f9"
   d="m 907.217,464.041 c -0.908,0.281 -1.875,-0.228 -2.156,-1.138 l -2.537,-8.195 c -0.281,-0.909 0.229,-1.876 1.137,-2.157 l 16.725,-5.176 c 0.907,-0.28 1.875,0.229 2.156,1.138 l 2.536,8.196 c 0.281,0.909 -0.229,1.875 -1.137,2.157 z"
   id="path793" />

				<path
   style="fill:#92b5f9"
   d="m 911.162,467.289 c -7.895,-0.165 -15.147,-5.306 -17.61,-13.264 -3.078,-9.943 2.488,-20.499 12.432,-23.576 9.944,-3.078 20.499,2.488 23.577,12.432 2.463,7.958 -0.614,16.306 -7.037,20.9 l 1.375,4.444 c 8.756,-5.469 13.118,-16.348 9.925,-26.664 -3.8,-12.279 -16.881,-19.177 -29.16,-15.376 -12.279,3.8 -19.177,16.881 -15.377,29.16 3.192,10.316 12.937,16.828 23.252,16.396 z"
   id="path795" />

				<path
   style="fill:#92b5f9"
   d="m 918.209,474.126 c 1.951,-0.604 3.909,-1.125 5.869,-1.567 l -3.66,-11.826 -9.239,2.859 3.614,11.678 c 1.124,-0.404 2.263,-0.787 3.416,-1.144 z"
   id="path797" />

			</g>

			<g
   id="g809">
				<path
   style="fill:#92b5f9"
   d="m 946.204,545.777 c 0.902,2.914 -0.729,6.007 -3.643,6.91 -2.914,0.901 -6.007,-0.73 -6.909,-3.644 -0.902,-2.914 0.729,-6.007 3.643,-6.908 2.914,-0.902 6.008,0.729 6.909,3.642 z"
   id="path801" />

				<path
   style="fill:#92b5f9"
   d="m 951.138,503.039 -8.308,44.789 c -0.21,1.128 -1.294,1.873 -2.422,1.664 -1.129,-0.209 -1.874,-1.293 -1.664,-2.422 0.033,-0.177 -0.507,1.78 12.394,-44.031 z"
   id="path803" />

				<path
   style="fill:#92b5f9"
   d="M 978.484,573.621 939.941,549.34 c -0.971,-0.612 -1.262,-1.894 -0.65,-2.866 0.611,-0.971 1.895,-1.262 2.865,-0.65 0.153,0.096 -1.466,-1.129 36.328,27.797 z"
   id="path805" />

				<path
   style="fill:#92b5f9"
   d="m 943.084,546.743 c 0.369,1.191 -0.298,2.455 -1.489,2.824 -1.19,0.368 -2.455,-0.298 -2.823,-1.489 -0.368,-1.191 0.298,-2.455 1.489,-2.823 1.191,-0.368 2.455,0.298 2.823,1.488 z"
   id="path807" />

			</g>

		</g>

		<g
   id="g817">
			<path
   style="fill:#fa7167"
   d="m 1712.522,718.38 c 0.639,-0.422 0.983,-1.173 0.889,-1.933 -0.47,-3.728 1.889,-10.031 3.463,-13.089 l 17.832,-1.078 c 1.931,2.847 5.031,8.82 5.014,12.578 0,0.766 0.429,1.469 1.114,1.811 l 12.562,6.275 c 0.685,0.342 1.507,0.265 2.117,-0.198 2.994,-2.269 9.631,-3.378 13.068,-3.545 l 9.848,14.904 c -1.5,3.096 -5.123,8.768 -8.385,10.631 -0.665,0.38 -1.058,1.106 -1.012,1.871 l 0.847,14.017 c 0.047,0.764 0.524,1.438 1.229,1.735 3.462,1.458 7.743,6.652 9.604,9.544 l -7.983,15.982 c -3.431,0.249 -10.154,-0.053 -13.399,-1.946 -0.662,-0.386 -1.487,-0.363 -2.125,0.059 l -11.716,7.742 c -0.64,0.422 -0.983,1.172 -0.888,1.932 0.469,3.728 -1.889,10.03 -3.463,13.089 l -17.832,1.078 c -1.931,-2.847 -5.031,-8.82 -5.014,-12.578 0,-0.766 -0.429,-1.469 -1.113,-1.811 l -12.563,-6.275 c -0.685,-0.342 -1.507,-0.266 -2.117,0.197 -2.994,2.271 -9.631,3.38 -13.067,3.545 l -9.849,-14.904 c 1.5,-3.096 5.122,-8.767 8.386,-10.631 0.664,-0.38 1.057,-1.106 1.011,-1.87 l -0.847,-14.017 c -0.046,-0.764 -0.524,-1.438 -1.229,-1.735 -3.462,-1.457 -7.743,-6.651 -9.604,-9.543 l 7.983,-15.981 c 3.432,-0.249 10.155,0.053 13.399,1.947 0.662,0.386 1.487,0.362 2.126,-0.059 z m -1.078,38.741 c 0.586,9.699 8.923,17.086 18.622,16.5 9.699,-0.586 17.087,-8.923 16.5,-18.623 -0.585,-9.699 -8.923,-17.086 -18.621,-16.5 -9.7,0.586 -17.087,8.923 -16.501,18.623 z m -11.263,0.68 c 0.962,15.919 14.647,28.044 30.566,27.083 15.92,-0.962 28.045,-14.647 27.083,-30.566 -0.962,-15.919 -14.646,-28.045 -30.566,-27.083 -15.919,0.962 -28.045,14.647 -27.083,30.566 z"
   id="path813" />

			<path
   style="fill:#fa7167"
   d="m 1634.689,822.335 c 0.559,0.235 0.937,0.769 0.973,1.374 l 0.67,11.099 c 0.036,0.606 -0.275,1.18 -0.801,1.481 -2.583,1.477 -5.452,5.967 -6.64,8.418 l 7.799,11.802 c 2.72,-0.132 7.976,-1.01 10.347,-2.808 0.483,-0.366 1.134,-0.427 1.677,-0.156 l 9.947,4.969 c 0.542,0.271 0.886,0.828 0.882,1.434 -0.014,2.975 2.441,7.705 3.97,9.959 l 14.12,-0.853 c 1.246,-2.422 3.113,-7.413 2.742,-10.364 -0.075,-0.602 0.197,-1.196 0.703,-1.53 l 9.277,-6.13 c 0.506,-0.335 1.159,-0.352 1.683,-0.047 2.57,1.499 7.894,1.738 10.61,1.541 l 6.32,-12.654 c -1.474,-2.291 -4.863,-6.403 -7.605,-7.557 -0.558,-0.235 -0.937,-0.768 -0.973,-1.373 l -0.67,-11.099 c -0.037,-0.606 0.275,-1.18 0.801,-1.481 2.583,-1.476 5.452,-5.967 6.64,-8.418 l -7.799,-11.802 c -2.72,0.131 -7.976,1.009 -10.347,2.807 -0.482,0.367 -1.133,0.427 -1.676,0.156 l -9.947,-4.968 c -0.542,-0.271 -0.885,-0.829 -0.882,-1.435 0.013,-2.976 -2.441,-7.704 -3.97,-9.959 l -14.12,0.853 c -1.246,2.422 -3.114,7.413 -2.742,10.365 0.077,0.601 -0.196,1.195 -0.702,1.53 l -9.277,6.13 c -0.506,0.334 -1.159,0.352 -1.684,0.046 -2.57,-1.499 -7.893,-1.738 -10.609,-1.542 l -6.321,12.655 c 1.473,2.29 4.862,6.403 7.604,7.557 z m 16.038,6.034 c -0.576,-9.554 6.701,-17.768 16.254,-18.345 9.554,-0.577 17.768,6.7 18.344,16.254 0.577,9.554 -6.701,17.767 -16.254,18.344 -9.553,0.577 -17.766,-6.7 -18.344,-16.253 z"
   id="path815" />

		</g>

		<g
   id="g847">
			<g
   id="g829">
				<polygon
   style="fill:#bed1f9"
   points="1473.397,1012.048 1429.594,1680.799 1094.152,1680.799 1050.35,1012.048 "
   id="polygon819" />

				<polygon
   style="fill:#4951ec"
   points="1457.968,1384.445 1457.968,1504.066 1067.633,1504.066 1068.965,1391.48 1050.35,1243.854 1475.363,1243.854 "
   id="polygon821" />

				<g
   id="g827">
					<path
   style="fill:#7c9af2"
   d="m 1503.342,1060.459 -482.937,-2.229 1.279,-25.541 c 0.967,-19.295 10.269,-34.103 21.422,-34.103 h 437.708 c 11.153,0 20.455,14.808 21.421,34.103 z"
   id="path823" />

					<path
   style="fill:#92b5f9"
   d="m 1475.363,998.572 h -429.44 l 1.554,-22.374 c 0.619,-8.897 10.157,-15.868 21.717,-15.868 h 382.898 c 11.559,0 21.098,6.97 21.716,15.868 z"
   id="path825" />

				</g>

			</g>

			<polygon
   style="fill:#7c9af2"
   points="1097.516,1383.179 1092.188,1257.814 1072.053,1257.814 1093.076,1385.862 1087.727,1490.53 1093.076,1490.53 "
   id="polygon831" />

			<polygon
   style="fill:#7c9af2"
   points="1144.122,1257.187 1126.992,1257.814 1142.363,1490.53 1146.803,1490.53 "
   id="polygon833" />

			<polygon
   style="fill:#7c9af2"
   points="1200.881,1257.187 1183.752,1257.814 1199.123,1490.53 1203.563,1490.53 "
   id="polygon835" />

			<polygon
   style="fill:#7c9af2"
   points="1410.411,1383.179 1415.739,1257.814 1435.874,1257.814 1414.851,1385.862 1420.2,1490.53 1414.851,1490.53 "
   id="polygon837" />

			<polygon
   style="fill:#7c9af2"
   points="1363.806,1257.187 1380.935,1257.814 1365.564,1490.53 1361.125,1490.53 "
   id="polygon839" />

			<polygon
   style="fill:#7c9af2"
   points="1308.172,1257.187 1325.302,1257.814 1309.932,1490.53 1305.491,1490.53 "
   id="polygon841" />

			<polygon
   style="fill:#7c9af2"
   points="1248.223,1257.187 1256.789,1257.814 1249.103,1490.53 1246.882,1490.53 "
   id="polygon843" />

			<path
   style="fill:#92b5f9"
   d="m 1403.093,981.233 h -71.817 l 4.679,-54.452 c 0.398,-4.643 6.263,-8.275 13.362,-8.275 h 35.735 c 7.1,0 12.964,3.631 13.362,8.275 z"
   id="path845" />

		</g>

		<g
   id="g891">
			<g
   id="g885">
				<path
   style="fill:#0b0754"
   d="m 1220.781,729.068 c 4.697,-22.966 -6.108,-45.734 -26.759,-54.283 0.137,-13.068 -5.013,-26.179 -13.91,-35.126 -17.551,-17.65 -53.712,-25.283 -66.62,-2.783 -17.046,9.674 -15.967,21.683 -10.884,40.768 -16.523,17.163 -10.483,45.261 13.607,59.926 -0.382,19.256 -0.883,48.297 15.905,56.526 4.031,1.976 10.336,4.729 11.133,5.583 -1.05,-0.996 12.434,36.669 54.328,19.431 42.751,-17.591 51.063,-67.104 23.2,-90.042 z"
   id="path849" />

				<path
   style="fill:#ef7f7f"
   d="m 1043.161,884.045 c 3.362,-3.319 9.284,-6.262 8.938,-6.751 -1.401,-1.977 -16.034,13.156 -15.078,8.893 0.533,-2.374 11.01,-14.732 14.726,-15.195 3.605,-0.451 26.937,-4.131 26.937,-4.131 l 53.918,-35.839 c 0,0 2.671,-42.388 -8.772,-70.942 12.514,-3.817 14.956,-4.634 27.814,-3.64 7.337,28.966 15.231,77.755 5.699,91.974 -4.011,5.981 -74.094,29.113 -74.094,29.113 0,0 -15.163,5.71 -17.988,5.887 -2.144,0.134 -8.046,-0.358 -10.928,0.089 -6.551,1.018 -14.664,10.759 -15.219,9.635 -0.405,-0.818 0.611,-5.702 4.047,-9.093 z"
   id="path851" />

				<path
   style="fill:#fa7167"
   d="m 1117.274,756.688 c 5.064,-9.367 10.28,-16.8 10.28,-16.8 5.252,-9.368 18.823,-14.107 18.823,-14.107 0,0 4.538,0.092 9.75,0.35 0.322,0.868 0.652,1.487 0.983,1.736 1.959,1.474 13.183,-0.429 20.434,4.51 24.303,20.902 17.581,122.214 15.67,154.214 l -60.671,0.258 c 0,0 -4.011,-68.408 -19.05,-86.097 -10.471,-12.318 -3.732,-30.17 3.781,-44.064 z"
   id="path853" />

				<path
   style="fill:#ef7f7f"
   d="m 1100.64,1113.131 c -0.651,-1.2 -9.084,-21.538 -15.972,-30.596 -10.003,-13.154 -96.494,-132.257 -92.934,-161.245 1.554,-12.659 39.031,-23.393 43.48,-24.156 23.849,3.199 -1.206,23.73 16.712,40.609 -11.65,3.984 -18.517,8.961 -16.002,12.233 10.081,13.115 63.619,118.784 65.947,120.148 10.367,6.078 14.435,3.26 14.435,3.26 0,0 -2.389,59.438 -7.333,57.563 -4.945,-1.875 -0.995,-4.307 -8.333,-17.816 z"
   id="path855" />

				<path
   style="fill:#0b0754"
   d="m 1120.683,1073.761 -10.001,59.88 c -2.25,7.751 -6.033,7.664 -7.001,6.626 -1.994,-2.137 -2.906,-18.126 -3.147,-27.216 4.511,-13.87 4.084,-39.983 1.303,-42.93 6.8,0.124 18.837,2.311 18.846,3.64 z"
   id="path857" />

				<path
   style="fill:#fb9390"
   d="m 1084.927,927.044 c -13.421,-22.251 -12.703,-19.435 -36.058,-29.489 -9.357,3.761 -40.683,23.39 -44.652,27.019 l 49.814,36.129 c -1.627,-4.04 15.723,-24.101 30.896,-33.659 z"
   id="path859" />

				<path
   style="fill:#fb9390"
   d="m 1150.634,691.508 c 0,0 4.068,29.152 6.91,36.236 2.842,7.084 -15.624,22.235 -30.988,26.834 -15.365,4.598 4.696,-15.649 4.059,-23.222 -0.636,-7.573 -3.429,-43.43 -3.429,-43.43 z"
   id="path861" />

				<path
   style="fill:#ef7f7f"
   d="m 1127.962,698.209 c -0.448,-5.932 -0.776,-10.283 -0.776,-10.283 l 23.449,3.582 c 0,0 0.591,3.425 1.246,8.268 -9.507,5.533 -18.056,3.787 -23.919,-1.567 z"
   id="path863" />

				<path
   style="fill:#fb9390"
   d="m 1143.281,638.259 c 0,0 9.243,2.09 14.95,10.828 5.706,8.739 9.622,34.463 -9.173,46.471 -18.797,12.008 -33.414,-4.978 -33.657,-21.544 -0.242,-16.568 3.296,-38.677 27.88,-35.755 z"
   id="path865" />

				<path
   style="fill:#fb9390"
   d="m 1111.099,668.829 c 1.604,3.998 4.785,6.478 7.106,5.541 2.32,-0.938 2.901,-4.938 1.298,-8.935 -1.603,-3.998 -4.785,-6.479 -7.106,-5.541 -2.32,0.937 -2.901,4.937 -1.298,8.935 z"
   id="path867" />

				<path
   style="fill:#fb9390"
   d="m 1158.531,672.114 c -1.364,4.307 -0.116,8.547 2.786,9.472 2.9,0.924 6.357,-1.818 7.72,-6.125 1.363,-4.307 0.116,-8.547 -2.785,-9.471 -2.901,-0.924 -6.359,1.818 -7.721,6.124 z"
   id="path869" />

				<path
   style="fill:#0b0754"
   d="m 1087.667,888.56 c 10.379,-0.953 44.725,-4.44 44.725,-4.44 l 60.926,-8.191 c 0,0 10.766,25.725 11.188,41.866 0.736,28.233 -25.247,52.029 -47.471,50.664 -13.229,-0.813 -88.111,-2.452 -102.729,-7.873 -3.02,-23.002 -6.493,-47.931 -21.995,-64.482 24.822,-3.411 41.27,-6.251 55.356,-7.544 z"
   id="path871" />

				<path
   style="fill:#fb9390"
   d="m 1086.889,1101.518 c -1.668,-1.729 -15.038,-93.159 -23.101,-131.534 -1.941,-9.24 -7.819,-17.17 -16.107,-21.692 l -43.464,-23.717 c -15.056,13.771 55.199,168.424 61.629,184.634 4.427,11.162 7.21,34.219 7.531,35.623 3.617,15.811 -1.094,17.153 3.402,20.469 4.497,3.316 24.651,-54.411 24.651,-54.411 0,0 -5.724,-0.242 -14.541,-9.372 z"
   id="path873" />

				<path
   style="fill:#4951ec"
   d="m 1099.98,892.538 v 0 c 0.01,2.302 -2.109,4.174 -4.725,4.18 l -73.821,0.175 c -2.615,0.006 -5.239,-2.256 -6.091,-5.055 l 1.346,0.897 c 0,-2.303 2.111,-4.174 4.726,-4.181 l 73.82,-0.174 c 2.616,-0.006 4.74,1.855 4.745,4.158 z"
   id="path875" />

				<g
   id="g879">
					<path
   style="fill:#4951ec"
   d="m 1022.179,895.385 c 0.438,0 0.884,-0.027 1.331,-0.084 3.821,-0.483 6.327,-2.921 5.596,-5.447 l -28.174,-97.489 c -0.729,-2.526 -4.416,-4.183 -8.24,-3.699 -3.821,0.482 -6.327,2.92 -5.596,5.447 l 28.175,97.488 c 0.644,2.231 3.597,3.784 6.908,3.784 z"
   id="path877" />

				</g>

				<path
   style="fill:#fb9390"
   d="m 1043.921,882.173 c 4.225,-2.114 10.768,-3.076 10.59,-3.648 -0.719,-2.314 -19.493,9.653 -17.262,5.896 1.242,-2.091 15.204,-12.708 18.881,-11.997 3.566,0.689 26.891,4.421 26.891,4.421 l 60.033,-21.698 c 0,0 11.447,-37.335 9.416,-68.03 13.081,0.249 22.221,2.421 34.139,7.352 -2.001,29.813 -9.616,78.647 -23.085,89.212 -5.665,4.444 -79.467,4.718 -79.467,4.718 0,0 -16.187,0.73 -18.927,0.023 -2.079,-0.537 -7.538,-2.835 -10.417,-3.302 -6.543,-1.063 -17.276,5.684 -17.456,4.445 -0.132,-0.903 2.347,-5.233 6.664,-7.392 z"
   id="path881" />

				<path
   style="fill:#e8605d"
   d="m 1148.296,754.554 c 0.838,-9.435 1.99,-18.939 11.61,-23.017 5.961,-2.528 13.087,-1.603 18.489,1.865 6.428,4.126 8.964,11.649 9.786,18.953 1.868,16.584 2.741,33.902 1.622,50.575 -11.918,-4.931 -28.129,-2.32 -41.211,-2.569 -2.918,-14.613 -1.388,-33.512 -0.296,-45.807 z"
   id="path883" />

			</g>

			<path
   style="fill:#fb9390"
   d="m 1052.839,873.268 c -10.258,2.625 -9.684,2.431 -10.099,2.692 -7.248,4.567 -6.672,6.547 4.453,1.778 0.282,-0.121 0.584,-0.18 0.891,-0.177 l 5.278,0.057 c 2.049,0.023 3.022,-2.513 1.485,-3.867 v 0 c -0.549,-0.483 -1.3,-0.664 -2.008,-0.483 z"
   id="path887" />

			<path
   style="fill:#0b0754"
   d="m 1072.928,1141.455 c 0,0 -0.983,6.843 -2.001,13.063 -1.001,6.12 0.542,16.269 2.793,19.27 2.25,2.999 28.789,-59.205 28.789,-59.205 0.85,-1.89 0.365,-4.109 -1.192,-5.478 -2.502,-2.194 -7.09,-5.309 -14.322,-7.477 -10e-4,10e-4 1.121,31.951 -14.067,39.827 z"
   id="path889" />

		</g>

		<g
   id="g933">
			<path
   style="fill:#ef7f7f"
   d="m 1606.985,1136.221 3.518,-15.771 c 0,0 11.514,7.199 18.23,17.484 6.717,10.285 9.915,37.712 11.834,38.739 1.919,1.028 23.17,-31.234 26.885,-36.32 4.597,-6.29 6.313,-13.511 9.191,-18.995 2.879,-5.485 13.014,-7.354 16.851,-6.667 3.838,0.686 -5.272,16.729 -5.272,16.729 0,0 -23.028,39.425 -30.705,61.023 -7.676,21.598 -31.664,31.883 -35.502,28.798 -3.835,-3.085 -15.03,-85.02 -15.03,-85.02 z"
   id="path893" />

			<path
   style="fill:#fb9390"
   d="m 1676.9,1124.377 c 0,0 0.958,-4.15 3.543,-5 2.586,-0.85 7.085,-0.095 7.372,0 0.287,0.094 5.266,-2.548 5.266,-2.548 l -4.118,7.548 c 0,0 -8.042,9.34 -10.723,5.85 -2.68,-3.491 -1.34,-5.85 -1.34,-5.85 z"
   id="path895" />

			<path
   style="fill:#fb9390"
   d="m 1694.518,1117.176 c 0,0 2.904,14.561 2.17,17.611 -0.736,3.061 -2.59,1.418 -2.937,0.754 -1.428,-2.736 -2.426,-12.076 -2.426,-12.076 z"
   id="path897" />

			<path
   style="fill:#fb9390"
   d="m 1688.262,1129.283 c 0,0 1.385,9.03 2.809,10.095 0.924,0.692 2.105,0.283 2.489,-1.541 0.383,-1.824 -1.852,-12.957 -1.852,-12.957 z"
   id="path899" />

			<path
   style="fill:#0b0754"
   d="m 1679.797,1154.907 -4.819,-2.315 20.472,-41.385 v 0 c 2.662,1.277 3.768,4.441 2.471,7.063 z"
   id="path901" />

			<path
   style="fill:#0b0754"
   d="m 1628.354,1071.371 c 2.889,-12.942 5.72,-25.967 -1.898,-40.185 -6.164,-11.507 -16.819,-18.128 -29.153,-19.569 -34.944,-4.085 -27.476,28.061 -76.316,35.02 -15.176,2.161 -36.946,0.348 -49.617,7.785 -22.88,13.431 -29.671,45.972 -14.499,81.068 37.154,85.938 134.179,5.875 145.444,-11.047 8.381,-12.589 24.179,-44.74 26.039,-53.072 z"
   id="path903" />

			<path
   style="fill:#fb9390"
   d="m 1488.605,1614.219 c 0,0 -2.489,24.896 -8.885,29.467 -6.397,4.571 -14.925,21.483 -10.661,30.626 1.333,2.856 3.998,4.509 7.033,5.429 8.986,2.727 18.547,-1.865 22.373,-10.329 2.138,-4.729 4.013,-11.035 4.39,-18.983 0.96,-20.228 7.356,-30.512 7.356,-30.512 z"
   id="path905" />

			<path
   style="fill:#fb9390"
   d="m 1586.901,1624.408 c 0,0 2.016,25.12 0.379,33.284 -0.876,4.372 -5.757,13.371 -3.518,17.484 2.239,4.114 4.797,5.143 4.797,5.143 l 58.024,0.919 c 3.161,0.05 1.073,-1.95 -1.476,-3.793 -4.171,-3.016 -7.538,-5.01 -20.862,-11.348 -0.869,-0.414 -4.034,-2.393 -5.174,-3.078 -2.893,-1.737 -5.798,-4.472 -8.299,-7.211 -4.167,-4.562 -4.531,-26.684 -4.531,-26.684 z"
   id="path907" />

			<path
   style="fill:#4951ec"
   d="m 1632.252,1290.493 c 0,0 7.308,40.786 2.51,67.526 -4.797,26.739 -27.825,274.592 -27.825,274.592 l -25.589,1.42 c 0,0 -5.364,-103.533 -4.405,-117.932 0.96,-14.398 8.554,-38.493 8.554,-38.493 l -2.547,-83.592 32.291,-109.816 z"
   id="path909" />

			<path
   style="fill:#7c9af2"
   d="m 1557.045,1281.915 c 0,0 -20.149,29.825 -24.946,54.507 -4.797,24.683 3.522,100.538 -5.707,132.882 -4.996,17.51 -23.93,44.549 -26.808,67.174 -2.879,22.626 -14.17,81.893 -14.17,81.893 l 25.577,4.985 59.443,-148.014 46.627,-133.781 11.945,-68.901 z"
   id="path911" />

			<path
   style="fill:#fa7167"
   d="m 1573.355,1112.224 c 0,0 -15.262,4.356 -25.816,15.668 -10.554,11.313 14.677,99.867 16.596,114.266 1.919,14.397 -15.725,47.985 -15.725,47.985 0,0 65.931,12.007 83.842,0.351 0,0 1.919,-103.534 0,-113.819 -1.918,-10.285 -17.911,-52.11 -21.748,-56.224 -3.839,-4.115 -37.149,-8.227 -37.149,-8.227 z"
   id="path913" />

			<path
   style="fill:#fb9390"
   d="m 1548.404,1134.046 c 1.701,-5.067 9.031,-9.286 14.003,-7.168 6.812,2.901 14.717,10.189 19.311,19.627 7.676,15.771 34.543,69.937 42.858,71.994 8.316,2.058 42.219,-56.224 42.219,-56.224 0,0 -0.959,-10.285 1.919,-16.112 2.879,-5.829 11.515,-11.999 12.794,-9.942 1.279,2.057 -4.798,7.199 -4.798,8.228 0,1.029 2.559,1.715 6.077,-0.343 3.518,-2.057 5.425,-6.217 5.425,-6.217 0,0 5.769,10.331 -0.307,19.587 -6.077,9.257 -8.635,13.027 -8.635,13.027 0,0 -39.34,86.05 -53.733,87.078 -13.405,0.958 -90.603,-83.412 -77.133,-123.535 z"
   id="path915" />

			<path
   style="fill:#fb9390"
   d="m 1582.237,1077.167 c 0,0 -0.138,0.772 -0.386,2.087 -1.189,6.308 -5.77,27.231 -8.864,32.983 -3.739,6.952 12.801,29.123 28.723,26.417 4.74,-0.806 -4.006,-20.371 -3.586,-22.443 0.804,-3.967 1.896,-9.38 3.012,-14.929 0.63,-3.131 1.269,-6.306 1.867,-9.289 1.703,-8.478 3.091,-15.411 3.091,-15.411 z"
   id="path917" />

			<path
   style="fill:#ef7f7f"
   d="m 1581.851,1079.254 c 0.248,-1.314 0.386,-2.087 0.386,-2.087 l 23.857,-0.585 c 0,0 -1.389,6.934 -3.091,15.411 -0.596,2.967 -1.231,6.123 -1.857,9.237 -3.683,-0.534 -7.531,-2.295 -11.391,-5.617 -4.206,-3.621 -6.963,-7.974 -8.628,-12.619 0.294,-1.483 0.54,-2.762 0.724,-3.74 z"
   id="path919" />

			<path
   style="fill:#fb9390"
   d="m 1596.588,1021.293 c 0,0 -9.729,1.33 -16.778,10.295 -7.049,8.965 -14.646,36.69 2.865,51.764 17.509,15.073 34.81,-1.988 37.375,-20.08 2.565,-18.09 2.046,-42.632 -23.462,-41.979 z"
   id="path921" />

			<path
   style="fill:#fb9390"
   d="m 1625.653,1057.09 c -2.09,3.995 -5.598,6.207 -7.837,4.941 -2.237,-1.267 -2.357,-5.531 -0.266,-9.527 2.089,-3.995 5.598,-6.208 7.836,-4.942 2.238,1.267 2.357,5.532 0.267,9.528 z"
   id="path923" />

			<path
   style="fill:#0b0754"
   d="m 1599.552,1020.874 c 0,0 -15.023,26.364 -25.77,27.583 -10.747,1.218 -12.158,15.228 -12.158,15.228 0,0 3.843,-32.281 14.481,-38.506 10.64,-6.226 23.447,-4.305 23.447,-4.305 z"
   id="path925" />

			<path
   style="fill:#fb9390"
   d="m 1577.296,1054.738 c 0.874,4.683 -0.884,8.977 -3.926,9.591 -3.043,0.615 -6.218,-2.684 -7.092,-7.364 -0.875,-4.683 0.883,-8.977 3.926,-9.591 3.043,-0.615 6.218,2.683 7.092,7.364 z"
   id="path927" />

			<path
   style="fill:#fa7167"
   d="m 1500.208,1664.959 c -13.939,2.498 -23.215,-5.521 -28.041,-11.523 -3.543,6.801 -5.714,15.289 -3.108,20.876 2.296,4.921 8.544,6.266 13.826,6.458 5.585,0.205 10.807,-2.673 13.577,-7.454 1.293,-2.234 2.627,-5.016 3.746,-8.357 z"
   id="path929" />

			<path
   style="fill:#fa7167"
   d="m 1619.064,1663.015 c -15.346,3.872 -26.689,1.24 -33.035,-1.276 -1.637,4.561 -3.806,10.283 -2.655,13.582 1.409,4.04 3.414,5.285 5.186,5.33 14.017,0.362 51.343,0.523 62.031,0.66 1.493,0.02 2.316,-1.696 1.356,-2.822 -2.649,-3.114 -31.739,-14.786 -32.883,-15.474 z"
   id="path931" />

		</g>

		<g
   id="g971">
			<path
   style="fill:#ef7f7f"
   d="m 1671.194,1294.971 c 11.127,-3.139 11.424,-1.196 12.835,-1.637 1.668,-0.52 15.125,-18.367 15.125,-18.367 0,0 40.055,-52.313 42.106,-55.219 l 12.632,-67.692 37.948,-0.294 c 0,0 -15.853,73.102 -17.403,76.721 -1.55,3.619 -65.026,67.515 -70.404,73.329 0,0 -3.476,9.444 -5.873,15.286 -2.396,5.842 -7.524,10.113 -8.477,11.635 -0.14,0.225 -3.643,5.086 -9.754,9.819 -5.267,4.08 -2.483,-2.272 -2.483,-2.272 0,0 8.15,-9.362 7.196,-9.919 -0.736,-0.43 -4.842,4.963 -10.613,9.54 -1.484,1.177 -2.954,2.333 -4.314,3.383 -3.57,2.758 -6.594,1.292 -3.403,-2.207 1.127,-1.235 3.057,-3.239 4.664,-4.463 1.738,-1.321 2.828,-3.112 4.086,-4.452 2.5,-2.661 4.361,-4.567 4.179,-4.616 -0.236,-0.064 -0.17,-0.963 -1.791,0.236 -1.948,1.44 -5.284,5.442 -8.345,7.334 -1.736,1.072 -5.197,3.538 -5.197,3.538 0,0 -6.065,2.726 -6.387,2.426 -1.746,-1.626 1.725,-4.653 4.316,-5.797 1.17,-1.572 4.9,-4.062 4.9,-4.062 0,0 6.183,-6.755 5.098,-7.696 -0.461,-0.401 -4.823,3.261 -9.759,6.155 -4.585,2.688 -9.754,4.646 -10.543,3.811 -1.338,-1.418 3.363,-4.951 3.363,-4.951 0,0 3.451,-2.295 4.526,-3.146 1.26,-0.997 4.767,-4.284 4.767,-4.284 0,0 11.586,-12.031 10.486,-12.848 -1.097,-0.815 -4.691,-1.917 -5.707,-1.434 -1.016,0.482 -2.289,2.344 -3.306,2.826 -1.015,0.482 -2.865,0.243 -3.71,-0.959 -0.845,-1.201 2.93,-5.417 2.93,-5.417 0,0 3.101,-3.401 6.312,-4.307 z"
   id="path935" />

			<path
   style="fill:#fb9390"
   d="m 1733.187,1636.798 c 0,0 -0.348,23.354 -0.34,23.403 0.496,2.966 4.149,10.292 4.149,12.987 0,10.126 -46.018,-8.597 -35.704,-13.084 0.933,-0.406 5.824,-3.479 6.131,-6.925 0.472,-5.312 1.672,-16.054 1.672,-16.054 z"
   id="path937" />

			<path
   style="fill:#0b0754"
   d="m 1701.405,1660.008 c 0,0 10.804,3.098 16.337,3.872 5.533,0.775 12.828,-5.746 16.742,-3.985 4.308,1.939 3.873,21.029 3.873,21.029 0,0 -55.245,0.79 -73.963,-0.273 -6.755,-0.383 14.923,-13.428 37.011,-20.643 z"
   id="path939" />

			<path
   style="fill:#fb9390"
   d="m 1835.584,1636.798 c 0,0 1.351,23.354 1.358,23.403 0.496,2.966 2.451,10.292 2.451,12.987 0,10.126 -46.018,-8.597 -35.704,-13.084 0.933,-0.406 7.273,-5.772 7.58,-9.219 0.474,-5.311 0.223,-13.76 0.223,-13.76 z"
   id="path941" />

			<path
   style="fill:#0b0754"
   d="m 1803.804,1660.008 c 0,0 10.803,3.098 16.336,3.872 5.534,0.775 12.829,-5.746 16.743,-3.985 4.308,1.939 4.195,20.756 4.195,20.756 0,0 -61.702,0.66 -76.748,0 -6.764,-0.297 17.386,-13.428 39.474,-20.643 z"
   id="path943" />

			<path
   style="fill:#0b0754"
   d="m 1762.66,1299.658 -19.455,8.218 -40.924,191.355 1.658,143.453 32.807,0.747 c 0,0 15.259,-125.484 15.259,-135.209 0,-9.726 70.679,-170.182 70.679,-170.182 z"
   id="path945" />

			<path
   style="fill:#0b0754"
   d="m 1777.677,1310.188 c 0,0 14.333,147.434 14.333,172.285 0,24.853 11.621,163.945 11.621,163.945 l 32.886,-0.186 c 0,0 2.372,-42.397 5.897,-104.77 0.553,-9.769 -0.711,-29.479 0,-39.591 5.116,-72.736 15.233,-141.208 10.401,-168.349 -0.777,-4.37 -2.239,-15.794 -5.087,-18.677 -21.534,-21.811 -70.051,-4.657 -70.051,-4.657 z"
   id="path947" />

			<path
   style="fill:#7c9af2"
   d="m 1737.563,1193.834 39.793,-2.609 c 0,0 1.964,-34.826 1.964,-51.438 0,-20.154 6.273,-49.87 3.821,-49.312 -6.883,1.568 -18.768,7.772 -24.286,15.299 -19.099,26.039 -21.292,88.06 -21.292,88.06 z"
   id="path949" />

			<path
   style="fill:#92b5f9"
   d="m 1831.84,1089.703 c 0,0 22.691,3.09 28.664,7.384 6.726,4.837 14.19,15.658 14.19,15.658 0,0 -27.859,128.943 -27.908,150.641 -0.039,16.787 6.032,58.004 6.032,58.004 0,0 -84.191,5.203 -116.078,-7.12 0,0 10.069,-49.021 10.069,-61.893 0,-12.872 12.044,-129.921 14.785,-138.096 2.487,-7.417 7.032,-20.744 22.415,-24.03 15.386,-3.286 47.831,-0.548 47.831,-0.548 z"
   id="path951" />

			<path
   style="fill:#fb9390"
   d="m 1825.644,1054.987 5.617,36.007 c 0,0 -20.513,42.872 -32.758,39.154 -10.274,-3.12 -3.953,-41.055 -3.953,-41.055 0,0 5.6,-20.371 3.921,-30.565 -1.68,-10.194 27.173,-3.541 27.173,-3.541 z"
   id="path953" />

			<path
   style="fill:#ef7f7f"
   d="m 1798.471,1058.528 c -1.68,-10.194 27.173,-3.541 27.173,-3.541 l 0.466,2.986 c -0.844,1.998 -1.876,3.707 -3.129,5.019 -6.444,6.746 -16.518,10.798 -25.228,11.104 0.871,-5.495 1.407,-11.387 0.718,-15.568 z"
   id="path955" />

			<g
   id="g963">
				<path
   style="fill:#fb9390"
   d="m 1830.378,1004.048 c 0.815,-0.288 6.536,41.009 -4.32,52.372 -10.857,11.362 -32.009,15.082 -39.597,6.132 -8.393,-9.898 -7.971,-54.283 8.909,-65.972 16.879,-11.689 35.008,7.468 35.008,7.468 z"
   id="path957" />

				<path
   style="fill:#fa7167"
   d="m 1801.795,974.488 c 13.048,2.588 21.499,10.343 24.603,13.648 5.924,0.68 13.976,3.865 22.291,17.254 10.223,16.464 2.674,34.704 -9.229,43.654 -11.9,8.949 -11.742,19.24 -11.742,19.24 l -1.874,-5.3 c -1.389,-4.052 -1.956,-8.347 -1.491,-12.596 0.278,-2.549 0.84,-5.306 1.925,-7.571 2.863,-5.978 -6.149,-9.948 -8.675,-14.921 -1.946,-3.828 -2.041,-12.588 -5.106,-18.917 l -3.661,-4.831 c 0,0 -8.445,-6.393 -16.708,-4.589 -8.261,1.805 -7.073,-28.39 9.667,-25.071 z"
   id="path959" />

				<path
   style="fill:#fb9390"
   d="m 1818.158,1035.247 c -0.086,5.038 2.269,9.163 5.26,9.213 2.991,0.05 5.485,-3.995 5.572,-9.033 0.086,-5.038 -2.269,-9.163 -5.26,-9.213 -2.991,-0.05 -5.485,3.994 -5.572,9.033 z"
   id="path961" />

			</g>

			<path
   style="fill:#0b0754"
   d="m 1773.973,1220.864 -0.543,3.073 c -0.28,1.583 -1.816,2.643 -3.432,2.369 l -65.075,-11.035 c -1.615,-0.273 -2.698,-1.778 -2.419,-3.359 l 0.544,-3.075 c 0.28,-1.582 1.817,-2.643 3.432,-2.368 l 65.074,11.035 c 1.616,0.273 2.7,1.778 2.419,3.36 z"
   id="path965" />

			<path
   style="fill:#fb9390"
   d="m 1866.225,1106.308 c -7.634,-0.217 -14.388,49.091 -9.547,53.955 4.839,4.864 5.763,65.597 5.763,65.597 l -72.026,-1.754 -0.01,0.023 c -1.404,-0.922 -16.494,-10.844 -18.652,-13.013 -2.264,-2.275 -13.259,-1.138 -16.17,1.99 -2.91,3.129 6.469,0.568 9.055,2.274 2.588,1.707 -1.94,5.973 -1.94,5.973 0,0 -18.253,2.594 -21.811,-1.104 -3.558,-3.697 -13.064,-9.955 -14.357,-6.258 -0.667,1.907 4.235,7.688 6.996,10.113 -3.447,-2.526 -7.572,-5.209 -8.988,-4.742 -2.587,0.854 -1.51,4.075 -0.108,5.024 1.401,0.947 15.892,11.779 18.155,12.538 2.211,0.74 35.915,1.556 41.738,2.818 0,0 94.982,21.178 100.382,19.855 4.736,-1.16 9.475,-30.925 9.475,-53.728 0,-22.798 -4.098,-98.886 -27.956,-99.561 z"
   id="path967" />

			<path
   style="fill:#92b5f9"
   d="m 1856.321,1095.059 c 0,0 13.287,2.995 27.013,18.097 12.481,13.732 20.345,90.638 20.345,90.638 l -43.098,6.822 -3.442,-37.201 -11.516,-17.017 z"
   id="path969" />

		</g>

		<g
   id="g993">
			<g
   id="g979">
				<polygon
   style="fill:#fb9390"
   points="849.017,1594.331 853.677,1575.778 902.527,1380.713 1133.78,1380.713 1182.112,1594.331 "
   id="polygon973" />

				<polygon
   style="opacity:0.68;fill:#fa7167"
   points="976.073,1380.713 984.332,1594.331 884.819,1594.331 936.776,1380.713 "
   id="polygon975" />

				<polygon
   style="opacity:0.68;fill:#fa7167"
   points="1066.73,1380.713 1113.096,1594.331 1037.116,1594.331 1026.838,1380.713 "
   id="polygon977" />

			</g>

			<path
   style="fill:#ffffff"
   d="m 1041.352,1366.027 c 0,0 -41.775,-4.493 -68.728,-10.333 -26.952,-5.839 -74.132,-12.45 -86.71,7.764 -12.578,20.214 -3.893,48.517 8.685,50.313 12.578,1.797 22.162,-1.797 32.943,-8.984 10.781,-7.188 12.679,-15.073 15.673,-21.962 0,0 3.643,-6.938 7.237,7.437 3.594,14.375 -17.807,62.909 -15.562,87.167 2.246,24.257 30.675,21.079 33.082,1.93 1.878,-14.949 -19.316,-82.209 -8.985,-91.642 10.332,-9.434 22.162,-5.989 23.959,5.689 1.797,11.68 -11.966,41.161 -8.526,57.07 3.594,16.621 25.604,10.78 26.054,-4.94 0.449,-15.723 -14.982,-51.531 -7.346,-55.124 7.637,-3.594 18.127,17.391 37.442,28.621 19.316,11.229 41.326,-11.23 48.514,-22.91 7.188,-11.68 34.589,-28.748 47.615,0.898 13.027,29.647 -9.434,101.969 -5.839,122.633 3.594,20.663 38.182,26.503 42.674,-1.349 3.798,-23.551 -17.78,-85.341 -23.718,-113.365 -1.16,-5.471 -0.872,-12.168 3.529,-15.619 7.037,-5.518 9.484,-14.878 6.024,-25.748 -6.288,-19.766 -32.39,-31.237 -59.342,-22.253 -26.949,8.984 -48.675,24.707 -48.675,24.707 z"
   id="path981" />

			<path
   style="fill:#ffffff"
   d="m 1084.477,1364.68 c 0,0 -27.402,-4.492 -29.2,-4.492 -1.796,0 -37.732,-14.375 -59.743,-12.129 -22.011,2.246 -53.455,11.679 -53.455,11.679 0,0 96.129,19.315 97.477,19.315 1.347,0 44.921,-14.373 44.921,-14.373 z"
   id="path983" />

			<g
   id="g991">
				<path
   style="fill:#0b0754"
   d="m 1072.641,1260.556 c 9.576,8.89 17.178,22.599 15.276,35.563 -2.867,20.797 -25.832,33.385 -37.779,39.448 -2.483,1.26 -5.02,1.299 -6.215,2.112 13.775,-8.325 29.951,-16.503 37.487,-30.896 8.063,-15.163 0.871,-31.511 -12.04,-42.722 z"
   id="path985" />

				<path
   style="fill:#fa7167"
   d="m 1063.424,1361.46 c -5.167,12.056 -21.961,16.426 -37.511,9.762 -15.551,-6.665 -23.968,-21.842 -18.801,-33.897 5.167,-12.056 21.962,-16.426 37.513,-9.761 15.549,6.664 23.966,21.839 18.799,33.896 z"
   id="path987" />

				<path
   style="fill:#e8605d"
   d="m 1055.876,1334.956 c 6.143,19.783 -15.62,33.368 -38.001,23.775 -4.37,-1.872 -8.152,-4.433 -11.252,-7.393 2.505,8.067 9.469,15.673 19.29,19.883 15.55,6.664 32.344,2.294 37.511,-9.762 3.715,-8.666 0.382,-18.931 -7.548,-26.503 z"
   id="path989" />

			</g>

		</g>

		<g
   id="g999">
			<path
   style="fill:#7c9af2"
   d="m 705.149,1604.09 v 0 c 0,17.752 28.246,42.598 45.907,47.624 18.747,5.334 36.006,12.96 36.006,28.947 v 0 l 474.854,0.138 c 0,-15.987 12.793,-23.748 31.537,-29.085 17.655,-5.028 45.871,-29.872 45.871,-47.624 v 0 z"
   id="path995" />

			<path
   style="fill:#4951ec"
   d="M 1360.962,1605.958 H 696.073 c -4.8,0 -8.692,-3.892 -8.692,-8.692 v -0.358 c 0,-4.801 3.891,-8.691 8.691,-8.691 h 664.889 c 4.8,0 8.691,3.891 8.691,8.691 v 0.359 c 10e-4,4.799 -3.89,8.691 -8.69,8.691 z"
   id="path997" />

		</g>

		<g
   id="g1009">
			<path
   style="fill:#fa7167"
   d="m 1537.211,545.701 -58.121,36.375 c -5.9,3.693 -13.677,1.903 -17.37,-3.997 l -36.374,-58.121 c -3.693,-5.901 -1.904,-13.677 3.997,-17.37 l 58.121,-36.375 c 5.9,-3.692 13.677,-1.903 17.37,3.997 l 36.374,58.121 c 3.693,5.9 1.903,13.677 -3.997,17.37 z"
   id="path1001" />

			<path
   style="fill:#ffffff"
   d="m 1510.11,504.44 c 9.415,15.043 4.852,34.87 -10.191,44.285 -15.042,9.415 -34.87,4.852 -44.285,-10.191 -9.415,-15.043 -4.852,-34.87 10.191,-44.285 15.044,-9.415 34.871,-4.852 44.285,10.191 z"
   id="path1003" />

			<path
   style="fill:#fa7167"
   d="m 1472.767,507.917 12.662,14.833 c 0.928,1.086 0.799,2.719 -0.288,3.646 -1.086,0.928 -2.719,0.799 -3.646,-0.288 -0.148,-0.174 -0.275,-0.375 -0.369,-0.571 z"
   id="path1005" />

			<path
   style="fill:#fa7167"
   d="m 1482.28,522.75 20.269,-10.418 -17.86,14.153 c -0.967,0.766 -2.371,0.603 -3.138,-0.363 -0.766,-0.967 -0.603,-2.371 0.363,-3.137 0.113,-0.089 0.243,-0.171 0.366,-0.235 z"
   id="path1007" />

		</g>

		<g
   id="g1015">
			<path
   style="fill:#4951ec"
   d="m 1972.917,910.305 c -9.864,19.447 -33.824,27.044 -53.138,16.665 -18.189,-9.774 -25.584,-32.405 -16.68,-51.036 9.454,-19.788 33.278,-27.813 52.722,-17.946 19.165,9.725 26.819,33.149 17.096,52.317 z"
   id="path1011" />

			<path
   style="fill:#efefef"
   d="m 1916.875,888.78 c -5.199,10.248 -1.106,22.772 9.14,27.971 10.246,5.2 22.767,1.107 27.965,-9.142 z"
   id="path1013" />

		</g>

		<g
   id="g1021">
			<path
   style="fill:#0b0754"
   d="m 571.672,1661.384 c 0,11.434 -13.036,20.701 -29.117,20.701 -16.081,0 -29.117,-9.268 -29.117,-20.701 0,-11.433 13.036,-20.7 29.117,-20.7 16.081,0 29.117,9.267 29.117,20.7 z"
   id="path1017" />

			<path
   style="fill:#7c9af2"
   d="m 522.503,1664.371 c 5.617,3.274 12.19,2.494 15.952,0.01 4.527,-2.845 7.556,-8.504 14.882,-8.912 4.165,-0.277 7.951,0.755 10.98,3.603 -4.504,-2.73 -9.622,-2.925 -13.494,-1.558 -4.876,1.692 -7.21,5.83 -11.476,8.337 -4.96,2.931 -12.278,2.655 -16.844,-1.479 z"
   id="path1019" />

		</g>

		<g
   id="g1027">
			<path
   style="fill:#0b0754"
   d="m 620.854,1673.962 c -6,9.731 -21.96,10.78 -35.649,2.342 -13.689,-8.439 -19.922,-23.169 -13.922,-32.901 5.999,-9.73 21.959,-10.779 35.648,-2.341 13.69,8.438 19.923,23.168 13.923,32.9 z"
   id="path1023" />

			<path
   style="fill:#7c9af2"
   d="m 577.432,1650.703 c 3.062,5.735 9.067,8.52 13.574,8.379 5.347,-0.047 10.894,-3.275 17.346,0.223 3.69,1.949 6.372,4.814 7.456,8.828 -2.401,-4.688 -6.656,-7.54 -10.67,-8.407 -5.038,-1.118 -9.196,1.18 -14.143,1.074 -5.761,-0.107 -11.846,-4.183 -13.563,-10.097 z"
   id="path1025" />

		</g>

		<g
   id="g1101">
			<g
   id="g1075">
				<path
   style="fill:#fb9390"
   d="m 233.628,936.142 c -2.719,2.356 11.602,29.819 11.602,29.819 l 1.114,-9.817 c 0,0 -9.996,-22.359 -12.716,-20.002 z"
   id="path1029" />

				<path
   style="fill:#fb9390"
   d="m 451.912,1030.625 c 0,0 20.236,3.97 19.704,10.064 -0.28,3.203 -2.029,11.462 -2.029,11.462 l 9.744,29.549 -22.434,4.44 c 0,0 -3.249,-21.33 -7.885,-26.829 -0.829,-0.982 -2.513,-0.816 -3.898,-1.994 -4.714,-4.008 -11.609,-13.181 -12.189,-15.237 -2.557,-9.065 18.987,-11.455 18.987,-11.455 z"
   id="path1031" />

				<path
   style="fill:#fb9390"
   d="m 240.602,946.01 c 0,0 2.262,14.299 4.606,19.951 1.231,2.971 7.233,15.437 7.233,15.437 l 2.102,30.936 23.183,-2.704 c 0,0 -7.45,-22.394 -4.684,-29.034 2.177,-5.226 3.658,-16.238 3.572,-19 -0.291,-9.416 -36.012,-15.586 -36.012,-15.586 z"
   id="path1033" />

				<path
   style="fill:#0b0754"
   d="m 394.269,1066.007 c 0,0 -12.052,-12.706 -21.745,2.752 0,0 -7.467,-4.192 -12.707,3.273 0,0 -13.492,-4.061 -16.767,16.112 0,0 -6.943,-1.31 -7.859,6.943 -0.918,8.252 3.274,13.753 3.274,13.753 0,0 -3.9,2.925 -2.128,10.513 1.506,6.451 6.844,7.434 6.844,7.434 0,0 1.441,10.872 6.156,14.147 4.716,3.274 11.134,1.704 11.134,1.704 0,0 1.704,5.894 7.205,5.369 5.501,-0.523 12.313,-5.764 18.47,-3.405 6.157,2.357 22.137,-0.132 22.137,-0.132 0,0 17.946,-7.99 12.575,-26.329 0,0 9.432,-8.515 1.179,-18.732 0,0 6.026,-15.979 -5.895,-25.412 -11.918,-9.431 -21.873,-7.99 -21.873,-7.99 z"
   id="path1035" />

				<path
   style="fill:#fb9390"
   d="m 260.336,1514.773 c 0,0 -20.777,-2.374 -24.219,-4.065 -3.442,-1.69 -20.884,14.967 -17.425,23.321 1.95,4.71 8.112,4.107 8.112,4.107 l 4.982,-4.863 26.364,5.495 z"
   id="path1037" />

				<path
   style="fill:#fb9390"
   d="m 378.916,1602.326 c 0,0 -10.941,17.821 -13.93,20.225 -2.989,2.404 4.726,25.256 13.759,25.656 5.092,0.225 7.154,-5.612 7.154,-5.612 l -2.3,-6.571 16.135,-21.564 z"
   id="path1039" />

				<path
   style="fill:#0b0754"
   d="m 365.644,1621.852 c 0,0 6.286,8.014 9.715,11.205 4.427,4.118 10.096,8.143 10.096,8.143 0,0 6.421,11.654 8.177,15.722 3.906,9.053 8.295,19.14 7.662,24.208 -0.203,1.628 -3.859,3.35 -6.904,2.413 -12.682,-3.898 -45.107,-33.56 -49.201,-41.522 -4.724,-9.185 20.455,-20.169 20.455,-20.169 z"
   id="path1041" />

				<path
   style="fill:#e8605d"
   d="m 458.199,1350.414 c -1.178,-3.296 -2.308,-6.346 -3.399,-9.213 -13.488,2.944 -28.723,6.182 -44.395,9.521 l -1.909,57.443 c 0.009,-4.437 11.782,91.621 11.782,91.621 0,0 -32.014,63.587 -52.842,102.884 8.548,10.666 15.117,15.335 27.495,22.605 32.333,-38.759 73.649,-107.075 75.406,-118.87 1.012,-6.784 1.921,-116.437 -12.138,-155.991 z"
   id="path1043" />

				<path
   style="fill:#fa7167"
   d="m 337.811,1367.026 c 3.667,39.819 9.729,100.099 10.836,120.382 -25.744,3.71 -86.57,22.004 -97.91,21.985 -4.29,9.616 -6.668,21.286 -3.691,30.877 0.587,1.892 119.988,5.695 150.81,-13.973 8.039,-5.129 10.517,-60.129 10.64,-118.132 l 1.909,-57.443 c -26.111,5.567 -50.121,11.026 -72.594,16.304 z"
   id="path1045" />

				<path
   style="fill:#ffffff"
   d="m 423.559,1162.991 -29.3,4.416 c 0,0 -22.084,0.345 -27.98,0.399 -0.511,0 -23.497,112.128 -29.085,154.324 -5.588,42.196 -1.259,49.667 -1.259,49.667 0,0 38.97,8.765 67.802,6.21 29.98,-2.657 63.711,-18.844 63.711,-18.844 0,0 -26.435,-78.842 -31.516,-104.159 -5.08,-25.316 -12.373,-92.013 -12.373,-92.013 z"
   id="path1047" />

				<path
   style="fill:#4951ec"
   d="m 477.558,1071.667 c 0,0 29.115,86.075 25.962,92.469 -4.585,9.302 -61.607,38.118 -61.607,38.118 0,0 23.454,93.337 33.819,128.966 1.043,3.589 5.664,26.766 5.664,29.024 0,5.012 -21.81,11.371 -24.399,10.994 -2.317,-0.338 -25.231,-97.574 -37.38,-145.6 -4.117,-16.274 -7.294,-32.56 -16.957,-46.287 l -8.449,-12.004 c 0,0 16.995,-6.124 24.59,-8.6 11.308,-3.688 49.485,-18.045 49.485,-18.045 0,0 -13.41,-60.706 -14.498,-66.507 -0.29,-1.544 20.627,-8.423 23.77,-2.528 z"
   id="path1049" />

				<path
   style="fill:#4951ec"
   d="m 366.279,1167.811 c 0,0 -41.656,-61.676 -53.252,-83.567 -9.496,-17.927 -30.923,-71.75 -31.724,-74.686 -0.786,-2.882 -24.865,-5.539 -32.267,-2.175 -1.994,0.906 19.699,72.527 28.642,95.895 8.259,21.582 37.609,84.436 37.609,84.436 0,0 16.921,38.612 14.282,68.446 -4.383,49.554 -13.078,120.962 -10.961,123.101 13.139,8.276 54.49,7.979 57.682,2.838 35.249,-56.77 -10.011,-214.288 -10.011,-214.288 z"
   id="path1051" />

				<path
   style="fill:#fb9390"
   d="m 392.233,1152.271 2.182,16.184 c 0,0 4.887,23.317 -1.4,27.813 -6.287,4.495 -26.736,-28.477 -26.736,-28.477 l 2.16,-41.01 z"
   id="path1053" />

				<path
   style="fill:#ef7f7f"
   d="m 367.739,1140.072 c 5.193,13.987 17.563,22.586 26.342,25.921 l -1.849,-13.722 -23.795,-25.49 z"
   id="path1055" />

				<path
   style="fill:#0b0754"
   d="m 334.978,1098.908 c 0,6.246 3.552,11.31 7.934,11.31 4.381,0 7.933,-5.063 7.933,-11.31 0,-6.247 -3.552,-11.309 -7.933,-11.309 -4.382,10e-4 -7.934,5.063 -7.934,11.309 z"
   id="path1057" />

				<path
   style="fill:#0b0754"
   d="m 358.779,1074.6 c 0,3.59 4.321,6.5 9.652,6.5 5.331,0 9.653,-2.91 9.653,-6.5 0,-3.59 -4.321,-6.5 -9.653,-6.5 -5.331,0 -9.652,2.91 -9.652,6.5 z"
   id="path1059" />

				<path
   style="fill:#fb9390"
   d="m 382.966,1083.695 c 12.759,-4.392 26.359,4.084 28.306,17.236 0.846,5.716 1.612,12.905 1.754,20.764 0.344,18.903 -9.442,37.301 -18.026,37.301 -8.584,0 -32.307,-12.237 -33.165,-39.073 -0.53,-16.569 7.742,-31.618 21.131,-36.228 z"
   id="path1061" />

				<path
   style="fill:#fb9390"
   d="m 368.16,1122.045 c 0,4.17 -2.765,7.551 -6.174,7.551 -3.409,0 -6.174,-3.381 -6.174,-7.551 0,-4.171 2.764,-7.55 6.174,-7.55 3.41,0 6.174,3.379 6.174,7.55 z"
   id="path1063" />

				<path
   style="fill:#0b0754"
   d="m 420.153,1074.29 c 8.867,7.023 11.974,17.696 6.94,23.838 -5.033,6.141 -16.301,5.426 -25.168,-1.599 -8.866,-7.023 -11.974,-17.696 -6.94,-23.838 5.034,-6.14 16.303,-5.425 25.168,1.599 z"
   id="path1065" />

				<path
   style="fill:#0b0754"
   d="m 396.973,1080.05 c 0,3.052 -3.686,5.527 -8.232,5.527 -4.547,0 -8.232,-2.476 -8.232,-5.527 0,-3.053 3.685,-5.527 8.232,-5.527 4.546,-10e-4 8.232,2.474 8.232,5.527 z"
   id="path1067" />

				<path
   style="fill:#0b0754"
   d="m 421.468,1103.539 c 0,3.925 -3.146,7.106 -7.027,7.106 -3.881,0 -7.027,-3.182 -7.027,-7.106 0,-3.924 3.147,-7.106 7.027,-7.106 3.881,0 7.027,3.181 7.027,7.106 z"
   id="path1069" />

				<path
   style="fill:#0b0754"
   d="m 237.028,1511.009 c 0,0 -4.603,9.086 -6.042,13.543 -1.858,5.753 -3.107,12.593 -3.107,12.593 0,0 -7.843,10.749 -10.786,14.06 -6.549,7.371 -14.567,16.089 -19.427,17.66 -1.56,0.504 -5.992,-0.821 -5.95,-4.261 0.162,-13.268 12.899,-56.519 18.382,-63.597 6.325,-8.165 26.93,10.002 26.93,10.002 z"
   id="path1071" />

				<path
   style="fill:#ef7f7f"
   d="m 438.236,1040.269 -3.035,1.77 c 0,0 4.046,-0.126 9.23,2.528 5.184,2.656 6.027,3.288 6.027,3.288 0,0 2.467,-1.903 5.353,-3.035 3.119,-1.222 9.557,-2.828 15.078,-4.051 5.907,-1.308 -15.583,-7.961 -15.583,-7.961 z"
   id="path1073" />

			</g>

			<g
   id="g1097">
				<path
   style="fill:#fa7167"
   d="m 613.072,612.452 c -99.387,-96.142 -257.894,-93.51 -354.036,5.877 -96.142,99.387 -93.51,257.894 5.877,354.035 99.387,96.142 257.895,93.511 354.036,-5.876 96.142,-99.388 93.51,-257.896 -5.877,-354.036 z m -240.92,249.053 c -38.161,-36.915 -39.172,-97.776 -2.256,-135.938 36.915,-38.161 97.776,-39.171 135.938,-2.257 38.161,36.916 39.171,97.777 2.256,135.938 -36.914,38.162 -97.776,39.172 -135.938,2.257 z"
   id="path1077" />

				<path
   style="fill:#dde8fe"
   d="m 416.285,639.626 v 0 c -5.032,-4.868 -5.165,-12.894 -0.297,-17.926 l 17.628,-18.224 c 4.868,-5.032 12.893,-5.165 17.926,-0.297 v 0 c 5.033,4.868 5.166,12.893 0.298,17.925 l -17.628,18.224 c -4.869,5.033 -12.895,5.166 -17.927,0.298 z"
   id="path1079" />

				<path
   style="fill:#dde8fe"
   d="m 579.975,890 v 0 c -5.658,4.124 -13.588,2.88 -17.711,-2.778 l -14.934,-20.49 c -4.123,-5.658 -2.879,-13.588 2.778,-17.711 v 0 c 5.658,-4.124 13.587,-2.88 17.712,2.778 l 14.933,20.49 c 4.125,5.657 2.88,13.586 -2.778,17.711 z"
   id="path1081" />

				<path
   style="fill:#dde8fe"
   d="m 350.383,675.204 -0.44,2.225 c -1.237,6.254 -7.311,10.321 -13.564,9.083 l -17.886,-3.539 c -6.253,-1.237 -10.32,-7.31 -9.082,-13.564 l 0.44,-2.225 c 1.237,-6.253 7.31,-10.32 13.564,-9.083 l 17.886,3.54 c 6.253,1.237 10.319,7.309 9.082,13.563 z"
   id="path1083" />

				<path
   style="fill:#dde8fe"
   d="m 483.04,955.412 -0.44,2.225 c -1.238,6.254 -7.311,10.321 -13.565,9.083 l -17.886,-3.539 c -6.254,-1.237 -10.32,-7.311 -9.083,-13.565 l 0.44,-2.225 c 1.238,-6.253 7.311,-10.32 13.564,-9.082 l 17.886,3.54 c 6.255,1.236 10.322,7.309 9.084,13.563 z"
   id="path1085" />

				<path
   style="fill:#dde8fe"
   d="m 542.984,678.47 -1.773,1.414 c -4.986,3.973 -12.249,3.153 -16.222,-1.833 l -11.363,-14.258 c -3.974,-4.986 -3.153,-12.249 1.833,-16.222 l 1.773,-1.413 c 4.986,-3.974 12.248,-3.153 16.222,1.833 l 11.363,14.258 c 3.974,4.985 3.153,12.248 -1.833,16.221 z"
   id="path1087" />

				<path
   style="fill:#dde8fe"
   d="m 397.345,961.733 -1.774,1.414 c -4.985,3.974 -12.247,3.152 -16.221,-1.833 l -11.363,-14.259 c -3.974,-4.985 -3.153,-12.248 1.833,-16.222 l 1.774,-1.414 c 4.985,-3.973 12.248,-3.153 16.221,1.833 l 11.364,14.258 c 3.972,4.987 3.151,12.25 -1.834,16.223 z"
   id="path1089" />

				<path
   style="fill:#dde8fe"
   d="m 620.969,763.375 0.13,2.264 c 0.365,6.365 -4.5,11.82 -10.865,12.185 l -18.204,1.041 c -6.364,0.364 -11.819,-4.501 -12.184,-10.865 l -0.129,-2.264 c -0.364,-6.365 4.5,-11.82 10.865,-12.184 l 18.204,-1.041 c 6.364,-0.365 11.818,4.5 12.183,10.864 z"
   id="path1091" />

				<path
   style="fill:#dde8fe"
   d="m 312.271,873.976 0.13,2.265 c 0.364,6.365 -4.5,11.819 -10.865,12.184 l -18.203,1.042 c -6.365,0.364 -11.82,-4.5 -12.184,-10.865 l -0.13,-2.264 c -0.364,-6.365 4.501,-11.82 10.865,-12.185 l 18.203,-1.042 c 6.365,-0.364 11.819,4.5 12.184,10.865 z"
   id="path1093" />

				<path
   style="fill:#dde8fe"
   d="m 294.034,785 v 0 c -5.787,3.942 -13.672,2.446 -17.614,-3.34 l -14.274,-20.955 c -3.941,-5.787 -2.446,-13.672 3.341,-17.614 v 0 c 5.786,-3.942 13.672,-2.446 17.614,3.34 l 14.274,20.955 c 3.941,5.787 2.445,13.673 -3.341,17.614 z"
   id="path1095" />

			</g>

			<path
   style="fill:#fb9390"
   d="m 433.199,1042.713 c 0,0 -0.566,-3.343 -0.242,-4.394 0.31,-1.006 1.456,-3.527 3.161,-2.782 1.085,0.475 0.031,4.331 0.031,4.331 l 4.257,3.056 -5.121,2.887 z"
   id="path1099" />

		</g>

	</g>

</g>
  </g>
</svg>
